<svg width="32" height="32" viewBox="0 0 32 32" fill="none" xmlns="http://www.w3.org/2000/svg">
<path d="M1.60935 7.77146C1.30531 8.08058 1.29794 8.57265 1.59022 8.89093L1.59047 8.8912L3.97817 11.4874L3.97825 11.4875C4.13192 11.6545 4.34929 11.75 4.57642 11.75H13.2178H13.7178V11.25V5.625V5.125H13.2178H4.55176C4.33387 5.125 4.12473 5.21339 3.97287 5.36715L3.97205 5.36799L1.60935 7.77146ZM1.60935 7.77146L1.96571 8.12196L1.60926 7.77155L1.60935 7.77146ZM28.6664 12.2955L28.6664 12.2955L31.0541 14.8917C31.0541 14.8917 31.0541 14.8917 31.0541 14.8917C31.6631 15.554 31.6462 16.5748 31.0154 17.2167L28.6525 19.6202L28.6525 19.6202C28.3378 19.9403 27.8974 20.125 27.4482 20.125H18.9072H18.4072V20.625V29.8125C18.4072 30.7425 17.6496 31.5 16.719 31.5H15.4685C14.5379 31.5 13.7803 30.7425 13.7803 29.8125V13.125V12.625H13.2803H4.57642C4.10558 12.625 3.652 12.4259 3.33371 12.0796L3.3336 12.0795L0.945902 9.48331L0.945883 9.48329C0.336727 8.82102 0.353753 7.80023 0.984557 7.15831L3.34751 4.75483L3.34754 4.7548C3.66222 4.43467 4.10259 4.25 4.55176 4.25H13.2803H13.7803V3.75V2.1875C13.7803 1.25749 14.5377 0.5 15.4685 0.5H16.719C17.6496 0.5 18.4072 1.25753 18.4072 2.1875V11.25V11.75H18.9072H27.4236C27.8943 11.75 28.3478 11.949 28.6664 12.2955ZM28.0276 19.0071L28.0277 19.007L30.3906 16.6035C30.3907 16.6035 30.3907 16.6035 30.3907 16.6035C30.6947 16.2943 30.702 15.8023 30.4098 15.4841L30.4095 15.4838L28.0218 12.8876L28.0217 12.8875C27.8681 12.7205 27.6507 12.625 27.4236 12.625H18.9072H18.4072V13.125V18.75V19.25H18.9072H27.4482C27.6659 19.25 27.8756 19.1617 28.0276 19.0071ZM15.4685 30.625H16.719C17.1675 30.625 17.5315 30.261 17.5315 29.8125V2.1875C17.5315 1.73899 17.1675 1.375 16.719 1.375H15.4685C15.02 1.375 14.656 1.73899 14.656 2.1875V29.8125C14.656 30.261 15.02 30.625 15.4685 30.625Z" fill="rgba(119, 119, 119, 1)" stroke="rgba(119, 119, 119, 1)"/>
</svg>
