<svg width="24" height="24" viewBox="0 0 24 24" fill="none" xmlns="http://www.w3.org/2000/svg">
<g clip-path="url(#clip0_188_632)">
<mask id="path-1-inside-1_188_632" fill="white">
<path d="M22.7495 8.00659C21.2332 8.00659 19.7169 8.00659 18.2006 8.00659C18.1169 8.00659 18.0234 8.04103 17.9397 7.97214C18.0086 7.87372 18.0677 7.78514 18.1268 7.69656C18.8652 6.49582 19.3378 5.21635 19.1508 3.7794C18.816 1.21061 16.2314 -0.501922 13.7206 0.137816C11.5643 0.688974 9.84123 2.94282 10.5797 5.64448C10.8111 6.48598 11.1557 7.26351 11.6825 7.99675C11.6135 8.00167 11.5889 8.00659 11.5643 8.00659C9.37354 8.00659 7.18277 8.00659 4.992 8.00659C4.83446 8.00659 4.8 7.96722 4.8 7.81467C4.80985 6.9338 4.80985 6.04801 4.8 5.16714C4.8 4.53232 4.27323 4.01561 3.63815 4.00577C3.24431 4.00577 2.85538 4.00577 2.46154 4.00577C1.03877 4.01069 0 5.04411 0 6.46138C0 11.5399 0 16.6234 0 21.7019C0 21.82 0 21.9332 0.0295385 22.0464C0.305231 23.2225 1.26523 23.9951 2.47138 23.9951C9.23077 23.9951 15.9852 23.9951 22.7446 23.9951C23.4929 23.9951 23.9951 23.4932 23.9951 22.7452C23.9951 18.2473 23.9951 13.7495 23.9951 9.25161C23.9951 8.50361 23.4929 8.00167 22.7446 8.00167L22.7495 8.00659ZM11.6234 6.22024C11.3625 5.63956 11.2148 5.02935 11.2 4.44374C11.2 2.51469 12.6474 0.964553 14.5772 0.826764C16.3495 0.698816 18.0037 1.9094 18.3434 3.804C18.5354 4.87187 18.2105 5.84132 17.7132 6.76648C16.9994 8.08532 16.0098 9.1778 14.912 10.1817C14.8431 10.2457 14.7988 10.2752 14.7102 10.1965C13.4597 9.04493 12.3372 7.79498 11.6283 6.22516L11.6234 6.22024ZM12.1452 8.8038C12.2683 8.8038 12.3225 8.86285 12.3865 8.94159C13.0117 9.71419 13.7058 10.4179 14.4689 11.0527C14.7249 11.2643 14.8726 11.2643 15.1286 11.0527C15.8917 10.4179 16.5858 9.71419 17.2111 8.94159C17.2751 8.86285 17.3292 8.8038 17.4523 8.8038C18.624 8.80872 19.8006 8.8038 20.9969 8.8038C20.8295 9.21717 20.6671 9.61577 20.5145 10.0144C20.4751 10.1128 20.3963 10.1226 20.3274 10.1522C19.7957 10.3687 19.2689 10.5754 18.7372 10.7919C18.4222 10.9199 18.3434 11.0626 18.4074 11.3923C18.5009 11.845 18.5895 12.3027 18.6929 12.7554C18.7323 12.9326 18.7028 13.0359 18.5305 13.1294C18.1317 13.3459 17.7428 13.592 17.3588 13.8331C17.2406 13.9069 17.1569 13.902 17.0486 13.8233C16.7975 13.6461 16.5415 13.4788 16.2806 13.3115C16.0098 13.1343 15.8671 13.1491 15.6406 13.3755C15.2418 13.7741 14.8382 14.1727 14.4443 14.5811C14.3458 14.6845 14.2769 14.6943 14.1489 14.6254C13.8732 14.4729 13.5926 14.3301 13.3022 14.2022C13.1742 14.1431 13.12 14.0546 13.0905 13.9266C13.0018 13.5379 12.9083 13.154 12.8098 12.7653C12.7262 12.4355 12.5489 12.3322 12.2191 12.406C11.8892 12.4847 11.5545 12.5536 11.2345 12.657C11.0523 12.716 11.008 12.6422 10.9538 12.4995C10.7766 12.0369 10.5797 11.5793 10.4074 11.1118C10.3483 10.9543 10.2498 10.851 10.0972 10.7771C9.70338 10.5852 9.31446 10.3835 8.91569 10.1915C8.80246 10.1374 8.73846 10.0685 8.71385 9.94056C8.64492 9.56656 8.56615 9.19256 8.48738 8.79396C9.728 8.79396 10.9342 8.79396 12.1403 8.79396L12.1452 8.8038ZM0.802462 19.5219C0.802462 15.211 0.802462 10.8952 0.802462 6.5844C0.802462 5.4624 1.46215 4.8079 2.58954 4.8079C2.88985 4.8079 3.19015 4.8079 3.49046 4.8079C3.85477 4.8079 4.00246 4.95553 4.00246 5.32461C4.00246 6.69759 4.00246 8.07056 4.00246 9.44846C4.00246 12.5044 4.00246 15.5604 4.00246 18.6164C4.00246 19.0839 3.87938 19.1971 3.41169 19.2069C2.944 19.2168 2.47631 19.1675 2.01354 19.2364C1.57046 19.3004 1.18154 19.4973 0.802462 19.8073V19.5268V19.5219ZM4.30277 23.193C4.736 22.6467 4.88862 21.943 5.56308 21.6133C6.04062 21.382 6.47877 21.072 6.93662 20.8013C7.06462 20.7275 7.15323 20.6291 7.21723 20.4962C7.58646 19.7532 7.95569 19.015 8.32985 18.2768C8.41846 18.0997 8.41846 17.9373 8.32492 17.7601C8.14277 17.4157 7.99015 17.0564 7.79323 16.7218C7.65538 16.4757 7.64062 16.2592 7.74892 15.9984C7.90646 15.6096 7.89169 15.6391 8.31508 15.5949C8.832 15.5407 9.23569 15.6834 9.536 16.1066C9.94462 16.6923 10.5009 16.894 11.2148 16.8104C11.7169 16.7513 11.7268 16.8005 11.9138 17.2828C12.0615 17.6617 12.3274 18.0455 12.3126 18.4146C12.2978 18.7788 11.9926 19.1282 11.8154 19.4825C11.7662 19.5809 11.7218 19.6793 11.6726 19.7728C11.5791 19.95 11.584 20.1173 11.6972 20.2895C11.9434 20.6537 12.1895 21.0179 12.4308 21.3869C12.5292 21.5395 12.6671 21.6133 12.8394 21.6379C13.4794 21.7413 14.1194 21.8446 14.7594 21.943C14.848 21.9578 14.9218 21.9775 14.9563 22.071C15.104 22.4401 15.2517 22.8042 15.4043 23.1881H4.30277V23.193ZM19.5446 22.1546C19.4757 22.4597 19.3822 22.7648 19.3132 23.0699C19.2886 23.1782 19.2443 23.1979 19.1508 23.1979C18.2449 23.1979 17.3342 23.193 16.4283 23.1979C16.2806 23.1979 16.2462 23.1192 16.2068 23.0207C16.0197 22.5532 15.8228 22.0857 15.6505 21.6084C15.552 21.3328 15.3797 21.195 15.0942 21.1557C14.464 21.0622 13.8338 20.949 13.1988 20.8555C13.0905 20.8407 13.0166 20.8013 12.9575 20.7078C12.8049 20.4618 12.5391 20.2305 12.5145 19.9746C12.4948 19.7335 12.7262 19.4727 12.8443 19.2168C13.3022 18.2375 13.3022 18.641 12.9083 17.6322C12.7409 17.1991 12.5637 16.771 12.3963 16.3379C12.3028 16.0968 12.1502 15.9885 11.8843 15.9984C11.4462 16.0082 10.9538 16.1116 10.5748 15.959C10.2055 15.8065 9.93969 15.3882 9.64431 15.0732C9.46215 14.8764 9.26031 14.7878 8.98954 14.8026C8.54646 14.8223 8.10831 14.8124 7.66523 14.8026C7.40923 14.7976 7.26154 14.9059 7.18769 15.147C7.07938 15.4964 6.96615 15.8409 6.84308 16.1854C6.77908 16.3527 6.79385 16.5053 6.87262 16.6627C7.07446 17.0515 7.26154 17.4501 7.46338 17.8389C7.52246 17.952 7.53231 18.0357 7.46831 18.1587C7.15815 18.7542 6.86277 19.3595 6.56738 19.9598C6.51323 20.0681 6.43938 20.1468 6.336 20.2059C5.78462 20.5307 5.23815 20.8653 4.69169 21.1901C4.56369 21.2639 4.47015 21.3574 4.39631 21.4854C4.08615 22.007 3.76615 22.5237 3.46092 23.0453C3.392 23.1634 3.32308 23.2127 3.19015 23.2028C2.84062 23.1782 2.49108 23.2274 2.14154 23.1634C1.31938 23.006 0.743385 22.2826 0.797538 21.4657C0.851692 20.6537 1.536 20.0238 2.38769 20.0041C2.78646 19.9943 3.18523 20.0041 3.58892 20.0041C4.28308 20.0041 4.8 19.4874 4.8 18.7886C4.8 15.5506 4.8 12.3076 4.79508 9.06954C4.79508 8.84317 4.85908 8.8038 5.06585 8.8038C5.86338 8.81856 6.66585 8.81364 7.46338 8.8038C7.616 8.8038 7.68 8.83825 7.70462 9.00064C7.77846 9.45338 7.87692 9.89627 7.95569 10.3441C7.99508 10.5754 8.10831 10.7329 8.32985 10.8313C8.72369 11.0134 9.10277 11.22 9.49169 11.4021C9.61969 11.4661 9.69846 11.5497 9.74769 11.6826C9.95446 12.2141 10.1662 12.7456 10.3828 13.2721C10.5058 13.5723 10.6585 13.651 10.9686 13.5723C11.2738 13.4985 11.584 13.4394 11.8843 13.3361C12.0763 13.2721 12.1058 13.3607 12.1403 13.4985C12.2092 13.7888 12.288 14.0792 12.352 14.3695C12.3963 14.5713 12.4997 14.7091 12.6917 14.7976C13.1791 15.0289 13.6615 15.2701 14.1391 15.521C14.3852 15.649 14.5772 15.6096 14.7643 15.4128C15.1434 15.024 15.5323 14.65 15.9114 14.2613C16.0148 14.153 16.0886 14.1235 16.2215 14.2268C16.448 14.3941 16.6942 14.5368 16.9255 14.6992C17.0929 14.8173 17.2603 14.8272 17.4375 14.7238C18.0825 14.3351 18.7323 13.9414 19.3822 13.5575C19.5988 13.4296 19.6382 13.2426 19.5988 13.0261C19.5102 12.5782 19.4166 12.1304 19.3182 11.6875C19.2837 11.5301 19.2985 11.4366 19.4806 11.3726C19.9532 11.2004 20.416 10.9937 20.8886 10.8116C21.056 10.7476 21.1594 10.6394 21.2234 10.472C21.4154 9.97501 21.6172 9.48783 21.8043 8.9908C21.8585 8.84317 21.9323 8.78903 22.0948 8.79888C22.2917 8.81364 22.4935 8.79888 22.6954 8.79888C23.0597 8.79888 23.2074 8.94651 23.2074 9.31559C23.2074 10.5655 23.2074 11.8155 23.2074 13.0654V16.7021C22.8234 16.6234 22.4542 16.5643 22.0948 16.4708C21.7452 16.3822 21.4055 16.3527 21.0806 16.5249C20.6425 16.7562 20.2388 16.7119 19.8351 16.4413C19.6382 16.3084 19.4018 16.2346 19.1951 16.1116C18.9538 15.9639 18.7274 15.9935 18.4615 16.0476C17.6443 16.2198 17.088 16.6726 16.6892 17.4058C16.3348 18.0554 16.2905 18.0308 16.8123 18.5524C16.9354 18.6754 17.0585 18.7985 17.1815 18.9215C17.3817 19.1249 17.4014 19.348 17.2406 19.5908C17.1274 19.763 17.0142 19.9402 16.896 20.1124C16.7582 20.3142 16.7729 20.5061 16.9403 20.6783C17.1963 20.9391 17.4572 21.195 17.7182 21.4558C17.8166 21.5543 17.9348 21.5936 18.0775 21.5936C18.4172 21.5887 18.7618 21.5936 19.1015 21.5936C19.3723 21.5936 19.6135 21.879 19.5495 22.1497L19.5446 22.1546ZM23.1975 20.2157C23.1975 21.0228 23.1975 21.8298 23.1975 22.6418C23.1975 23.065 23.0646 23.2028 22.6511 23.2028C21.8782 23.2028 21.1003 23.2028 20.3274 23.2028C20.1502 23.2028 20.1058 23.1585 20.1649 22.9961C20.1846 22.942 20.1945 22.8829 20.2092 22.8288C20.3733 22.2055 20.3011 21.615 19.9926 21.0572C19.8942 20.8801 19.7563 20.7964 19.5495 20.8013C19.1508 20.8112 18.752 20.8013 18.3483 20.8013C18.2055 20.8013 17.7969 20.5061 17.7526 20.3732C17.728 20.3043 17.7822 20.2649 17.8117 20.2157C17.9692 19.9746 18.1366 19.7335 18.2942 19.4874C18.4665 19.2217 18.4468 19.074 18.2252 18.8477C17.9692 18.5869 17.7132 18.326 17.4474 18.0702C17.3489 17.9767 17.3292 17.9028 17.4228 17.7995C17.4375 17.7798 17.4572 17.7601 17.4671 17.7355C17.6935 17.1942 18.1563 16.9974 18.6831 16.8694C18.7815 16.8448 18.8455 16.8694 18.9145 16.9088C19.3231 17.1105 19.7317 17.3172 20.1354 17.5239C20.3028 17.6076 20.4652 17.6322 20.6375 17.5485C20.6818 17.5288 20.736 17.5239 20.7754 17.4993C21.5532 17.0367 22.3311 17.3517 23.1089 17.4895C23.2566 17.5141 23.2025 17.6273 23.2025 17.706C23.2025 18.5377 23.2025 19.3742 23.2025 20.2059L23.1975 20.2157Z"/>
</mask>
<path d="M22.7495 8.00659C21.2332 8.00659 19.7169 8.00659 18.2006 8.00659C18.1169 8.00659 18.0234 8.04103 17.9397 7.97214C18.0086 7.87372 18.0677 7.78514 18.1268 7.69656C18.8652 6.49582 19.3378 5.21635 19.1508 3.7794C18.816 1.21061 16.2314 -0.501922 13.7206 0.137816C11.5643 0.688974 9.84123 2.94282 10.5797 5.64448C10.8111 6.48598 11.1557 7.26351 11.6825 7.99675C11.6135 8.00167 11.5889 8.00659 11.5643 8.00659C9.37354 8.00659 7.18277 8.00659 4.992 8.00659C4.83446 8.00659 4.8 7.96722 4.8 7.81467C4.80985 6.9338 4.80985 6.04801 4.8 5.16714C4.8 4.53232 4.27323 4.01561 3.63815 4.00577C3.24431 4.00577 2.85538 4.00577 2.46154 4.00577C1.03877 4.01069 0 5.04411 0 6.46138C0 11.5399 0 16.6234 0 21.7019C0 21.82 0 21.9332 0.0295385 22.0464C0.305231 23.2225 1.26523 23.9951 2.47138 23.9951C9.23077 23.9951 15.9852 23.9951 22.7446 23.9951C23.4929 23.9951 23.9951 23.4932 23.9951 22.7452C23.9951 18.2473 23.9951 13.7495 23.9951 9.25161C23.9951 8.50361 23.4929 8.00167 22.7446 8.00167L22.7495 8.00659ZM11.6234 6.22024C11.3625 5.63956 11.2148 5.02935 11.2 4.44374C11.2 2.51469 12.6474 0.964553 14.5772 0.826764C16.3495 0.698816 18.0037 1.9094 18.3434 3.804C18.5354 4.87187 18.2105 5.84132 17.7132 6.76648C16.9994 8.08532 16.0098 9.1778 14.912 10.1817C14.8431 10.2457 14.7988 10.2752 14.7102 10.1965C13.4597 9.04493 12.3372 7.79498 11.6283 6.22516L11.6234 6.22024ZM12.1452 8.8038C12.2683 8.8038 12.3225 8.86285 12.3865 8.94159C13.0117 9.71419 13.7058 10.4179 14.4689 11.0527C14.7249 11.2643 14.8726 11.2643 15.1286 11.0527C15.8917 10.4179 16.5858 9.71419 17.2111 8.94159C17.2751 8.86285 17.3292 8.8038 17.4523 8.8038C18.624 8.80872 19.8006 8.8038 20.9969 8.8038C20.8295 9.21717 20.6671 9.61577 20.5145 10.0144C20.4751 10.1128 20.3963 10.1226 20.3274 10.1522C19.7957 10.3687 19.2689 10.5754 18.7372 10.7919C18.4222 10.9199 18.3434 11.0626 18.4074 11.3923C18.5009 11.845 18.5895 12.3027 18.6929 12.7554C18.7323 12.9326 18.7028 13.0359 18.5305 13.1294C18.1317 13.3459 17.7428 13.592 17.3588 13.8331C17.2406 13.9069 17.1569 13.902 17.0486 13.8233C16.7975 13.6461 16.5415 13.4788 16.2806 13.3115C16.0098 13.1343 15.8671 13.1491 15.6406 13.3755C15.2418 13.7741 14.8382 14.1727 14.4443 14.5811C14.3458 14.6845 14.2769 14.6943 14.1489 14.6254C13.8732 14.4729 13.5926 14.3301 13.3022 14.2022C13.1742 14.1431 13.12 14.0546 13.0905 13.9266C13.0018 13.5379 12.9083 13.154 12.8098 12.7653C12.7262 12.4355 12.5489 12.3322 12.2191 12.406C11.8892 12.4847 11.5545 12.5536 11.2345 12.657C11.0523 12.716 11.008 12.6422 10.9538 12.4995C10.7766 12.0369 10.5797 11.5793 10.4074 11.1118C10.3483 10.9543 10.2498 10.851 10.0972 10.7771C9.70338 10.5852 9.31446 10.3835 8.91569 10.1915C8.80246 10.1374 8.73846 10.0685 8.71385 9.94056C8.64492 9.56656 8.56615 9.19256 8.48738 8.79396C9.728 8.79396 10.9342 8.79396 12.1403 8.79396L12.1452 8.8038ZM0.802462 19.5219C0.802462 15.211 0.802462 10.8952 0.802462 6.5844C0.802462 5.4624 1.46215 4.8079 2.58954 4.8079C2.88985 4.8079 3.19015 4.8079 3.49046 4.8079C3.85477 4.8079 4.00246 4.95553 4.00246 5.32461C4.00246 6.69759 4.00246 8.07056 4.00246 9.44846C4.00246 12.5044 4.00246 15.5604 4.00246 18.6164C4.00246 19.0839 3.87938 19.1971 3.41169 19.2069C2.944 19.2168 2.47631 19.1675 2.01354 19.2364C1.57046 19.3004 1.18154 19.4973 0.802462 19.8073V19.5268V19.5219ZM4.30277 23.193C4.736 22.6467 4.88862 21.943 5.56308 21.6133C6.04062 21.382 6.47877 21.072 6.93662 20.8013C7.06462 20.7275 7.15323 20.6291 7.21723 20.4962C7.58646 19.7532 7.95569 19.015 8.32985 18.2768C8.41846 18.0997 8.41846 17.9373 8.32492 17.7601C8.14277 17.4157 7.99015 17.0564 7.79323 16.7218C7.65538 16.4757 7.64062 16.2592 7.74892 15.9984C7.90646 15.6096 7.89169 15.6391 8.31508 15.5949C8.832 15.5407 9.23569 15.6834 9.536 16.1066C9.94462 16.6923 10.5009 16.894 11.2148 16.8104C11.7169 16.7513 11.7268 16.8005 11.9138 17.2828C12.0615 17.6617 12.3274 18.0455 12.3126 18.4146C12.2978 18.7788 11.9926 19.1282 11.8154 19.4825C11.7662 19.5809 11.7218 19.6793 11.6726 19.7728C11.5791 19.95 11.584 20.1173 11.6972 20.2895C11.9434 20.6537 12.1895 21.0179 12.4308 21.3869C12.5292 21.5395 12.6671 21.6133 12.8394 21.6379C13.4794 21.7413 14.1194 21.8446 14.7594 21.943C14.848 21.9578 14.9218 21.9775 14.9563 22.071C15.104 22.4401 15.2517 22.8042 15.4043 23.1881H4.30277V23.193ZM19.5446 22.1546C19.4757 22.4597 19.3822 22.7648 19.3132 23.0699C19.2886 23.1782 19.2443 23.1979 19.1508 23.1979C18.2449 23.1979 17.3342 23.193 16.4283 23.1979C16.2806 23.1979 16.2462 23.1192 16.2068 23.0207C16.0197 22.5532 15.8228 22.0857 15.6505 21.6084C15.552 21.3328 15.3797 21.195 15.0942 21.1557C14.464 21.0622 13.8338 20.949 13.1988 20.8555C13.0905 20.8407 13.0166 20.8013 12.9575 20.7078C12.8049 20.4618 12.5391 20.2305 12.5145 19.9746C12.4948 19.7335 12.7262 19.4727 12.8443 19.2168C13.3022 18.2375 13.3022 18.641 12.9083 17.6322C12.7409 17.1991 12.5637 16.771 12.3963 16.3379C12.3028 16.0968 12.1502 15.9885 11.8843 15.9984C11.4462 16.0082 10.9538 16.1116 10.5748 15.959C10.2055 15.8065 9.93969 15.3882 9.64431 15.0732C9.46215 14.8764 9.26031 14.7878 8.98954 14.8026C8.54646 14.8223 8.10831 14.8124 7.66523 14.8026C7.40923 14.7976 7.26154 14.9059 7.18769 15.147C7.07938 15.4964 6.96615 15.8409 6.84308 16.1854C6.77908 16.3527 6.79385 16.5053 6.87262 16.6627C7.07446 17.0515 7.26154 17.4501 7.46338 17.8389C7.52246 17.952 7.53231 18.0357 7.46831 18.1587C7.15815 18.7542 6.86277 19.3595 6.56738 19.9598C6.51323 20.0681 6.43938 20.1468 6.336 20.2059C5.78462 20.5307 5.23815 20.8653 4.69169 21.1901C4.56369 21.2639 4.47015 21.3574 4.39631 21.4854C4.08615 22.007 3.76615 22.5237 3.46092 23.0453C3.392 23.1634 3.32308 23.2127 3.19015 23.2028C2.84062 23.1782 2.49108 23.2274 2.14154 23.1634C1.31938 23.006 0.743385 22.2826 0.797538 21.4657C0.851692 20.6537 1.536 20.0238 2.38769 20.0041C2.78646 19.9943 3.18523 20.0041 3.58892 20.0041C4.28308 20.0041 4.8 19.4874 4.8 18.7886C4.8 15.5506 4.8 12.3076 4.79508 9.06954C4.79508 8.84317 4.85908 8.8038 5.06585 8.8038C5.86338 8.81856 6.66585 8.81364 7.46338 8.8038C7.616 8.8038 7.68 8.83825 7.70462 9.00064C7.77846 9.45338 7.87692 9.89627 7.95569 10.3441C7.99508 10.5754 8.10831 10.7329 8.32985 10.8313C8.72369 11.0134 9.10277 11.22 9.49169 11.4021C9.61969 11.4661 9.69846 11.5497 9.74769 11.6826C9.95446 12.2141 10.1662 12.7456 10.3828 13.2721C10.5058 13.5723 10.6585 13.651 10.9686 13.5723C11.2738 13.4985 11.584 13.4394 11.8843 13.3361C12.0763 13.2721 12.1058 13.3607 12.1403 13.4985C12.2092 13.7888 12.288 14.0792 12.352 14.3695C12.3963 14.5713 12.4997 14.7091 12.6917 14.7976C13.1791 15.0289 13.6615 15.2701 14.1391 15.521C14.3852 15.649 14.5772 15.6096 14.7643 15.4128C15.1434 15.024 15.5323 14.65 15.9114 14.2613C16.0148 14.153 16.0886 14.1235 16.2215 14.2268C16.448 14.3941 16.6942 14.5368 16.9255 14.6992C17.0929 14.8173 17.2603 14.8272 17.4375 14.7238C18.0825 14.3351 18.7323 13.9414 19.3822 13.5575C19.5988 13.4296 19.6382 13.2426 19.5988 13.0261C19.5102 12.5782 19.4166 12.1304 19.3182 11.6875C19.2837 11.5301 19.2985 11.4366 19.4806 11.3726C19.9532 11.2004 20.416 10.9937 20.8886 10.8116C21.056 10.7476 21.1594 10.6394 21.2234 10.472C21.4154 9.97501 21.6172 9.48783 21.8043 8.9908C21.8585 8.84317 21.9323 8.78903 22.0948 8.79888C22.2917 8.81364 22.4935 8.79888 22.6954 8.79888C23.0597 8.79888 23.2074 8.94651 23.2074 9.31559C23.2074 10.5655 23.2074 11.8155 23.2074 13.0654V16.7021C22.8234 16.6234 22.4542 16.5643 22.0948 16.4708C21.7452 16.3822 21.4055 16.3527 21.0806 16.5249C20.6425 16.7562 20.2388 16.7119 19.8351 16.4413C19.6382 16.3084 19.4018 16.2346 19.1951 16.1116C18.9538 15.9639 18.7274 15.9935 18.4615 16.0476C17.6443 16.2198 17.088 16.6726 16.6892 17.4058C16.3348 18.0554 16.2905 18.0308 16.8123 18.5524C16.9354 18.6754 17.0585 18.7985 17.1815 18.9215C17.3817 19.1249 17.4014 19.348 17.2406 19.5908C17.1274 19.763 17.0142 19.9402 16.896 20.1124C16.7582 20.3142 16.7729 20.5061 16.9403 20.6783C17.1963 20.9391 17.4572 21.195 17.7182 21.4558C17.8166 21.5543 17.9348 21.5936 18.0775 21.5936C18.4172 21.5887 18.7618 21.5936 19.1015 21.5936C19.3723 21.5936 19.6135 21.879 19.5495 22.1497L19.5446 22.1546ZM23.1975 20.2157C23.1975 21.0228 23.1975 21.8298 23.1975 22.6418C23.1975 23.065 23.0646 23.2028 22.6511 23.2028C21.8782 23.2028 21.1003 23.2028 20.3274 23.2028C20.1502 23.2028 20.1058 23.1585 20.1649 22.9961C20.1846 22.942 20.1945 22.8829 20.2092 22.8288C20.3733 22.2055 20.3011 21.615 19.9926 21.0572C19.8942 20.8801 19.7563 20.7964 19.5495 20.8013C19.1508 20.8112 18.752 20.8013 18.3483 20.8013C18.2055 20.8013 17.7969 20.5061 17.7526 20.3732C17.728 20.3043 17.7822 20.2649 17.8117 20.2157C17.9692 19.9746 18.1366 19.7335 18.2942 19.4874C18.4665 19.2217 18.4468 19.074 18.2252 18.8477C17.9692 18.5869 17.7132 18.326 17.4474 18.0702C17.3489 17.9767 17.3292 17.9028 17.4228 17.7995C17.4375 17.7798 17.4572 17.7601 17.4671 17.7355C17.6935 17.1942 18.1563 16.9974 18.6831 16.8694C18.7815 16.8448 18.8455 16.8694 18.9145 16.9088C19.3231 17.1105 19.7317 17.3172 20.1354 17.5239C20.3028 17.6076 20.4652 17.6322 20.6375 17.5485C20.6818 17.5288 20.736 17.5239 20.7754 17.4993C21.5532 17.0367 22.3311 17.3517 23.1089 17.4895C23.2566 17.5141 23.2025 17.6273 23.2025 17.706C23.2025 18.5377 23.2025 19.3742 23.2025 20.2059L23.1975 20.2157Z" stroke="currentColor" stroke-width="2" mask="url(#path-1-inside-1_188_632)"/>
<mask id="path-2-inside-2_188_632" fill="white">
<path d="M14.8038 2.40641C13.6813 2.40641 12.7952 3.28728 12.7952 4.40928C12.7952 5.51652 13.6813 6.40231 14.789 6.40231C15.9115 6.40231 16.7976 5.51652 16.7976 4.39452C16.7976 3.2922 15.9115 2.40149 14.8038 2.40149V2.40641ZM14.7939 5.6051C14.1539 5.6051 13.5976 5.04902 13.6026 4.40928C13.6075 3.74986 14.1687 3.1987 14.8186 3.21346C15.4684 3.22823 16.005 3.77939 15.9952 4.42404C15.9853 5.07362 15.4389 5.61002 14.789 5.61002L14.7939 5.6051Z"/>
</mask>
<path d="M14.8038 2.40641V3.40641H15.8038V2.40641H14.8038ZM14.8038 2.40149V1.40149H13.8038V2.40149H14.8038ZM14.7939 5.6051L15.5009 6.31232L17.2087 4.6051H14.7939V5.6051ZM13.6026 4.40928L14.6025 4.41698L14.6025 4.41675L13.6026 4.40928ZM15.9952 4.42404L14.9953 4.40877L14.9953 4.40889L15.9952 4.42404ZM14.789 5.61002L14.082 4.9028L12.3743 6.61002H14.789V5.61002ZM14.8038 1.40641C13.1326 1.40641 11.7952 2.7314 11.7952 4.40928H13.7952C13.7952 3.84316 14.23 3.40641 14.8038 3.40641V1.40641ZM11.7952 4.40928C11.7952 6.06919 13.1294 7.40231 14.789 7.40231V5.40231C14.2332 5.40231 13.7952 4.96385 13.7952 4.40928H11.7952ZM14.789 7.40231C16.4634 7.40231 17.7976 6.06919 17.7976 4.39452H15.7976C15.7976 4.96385 15.3596 5.40231 14.789 5.40231V7.40231ZM17.7976 4.39452C17.7976 2.74114 16.465 1.40149 14.8038 1.40149V3.40149C15.358 3.40149 15.7976 3.84326 15.7976 4.39452H17.7976ZM13.8038 2.40149V2.40641H15.8038V2.40149H13.8038ZM14.7939 4.6051C14.7663 4.6051 14.7149 4.59155 14.6644 4.54083C14.6139 4.49027 14.6023 4.4412 14.6025 4.41698L12.6026 4.40159C12.5933 5.6016 13.6037 6.6051 14.7939 6.6051V4.6051ZM14.6025 4.41675C14.6029 4.37241 14.6224 4.31822 14.6697 4.2717C14.7171 4.22514 14.765 4.21251 14.7958 4.21321L14.8413 2.21372C13.621 2.186 12.6116 3.19656 12.6026 4.40182L14.6025 4.41675ZM14.7958 4.21321C14.8408 4.21423 14.8932 4.23428 14.9373 4.27971C14.9814 4.32504 14.9958 4.37304 14.9953 4.40877L16.995 4.43932C17.0134 3.23591 16.0309 2.24075 14.8413 2.21372L14.7958 4.21321ZM14.9953 4.40889C14.9946 4.45293 14.9758 4.50356 14.9312 4.54739C14.8865 4.5913 14.8346 4.61002 14.789 4.61002V6.61002C15.9831 6.61002 16.9769 5.6372 16.9951 4.4392L14.9953 4.40889ZM15.496 6.31724L15.5009 6.31232L14.0869 4.89788L14.082 4.9028L15.496 6.31724Z" fill="currentColor" mask="url(#path-2-inside-2_188_632)"/>
</g>
<defs>
<clipPath id="clip0_188_632">
<rect width="24" height="24" fill="white"/>
</clipPath>
</defs>
</svg>
